<svg width="20" height="20" viewBox="0 0 20 20" fill="none" xmlns="http://www.w3.org/2000/svg">
<g clip-path="url(#clip0_1_1213)">
<path d="M9.99 19.4417C9.6034 19.4433 9.22164 19.3556 8.87444 19.1856L1.38222 15.4667C0.967348 15.2623 0.617994 14.9458 0.373711 14.553C0.129427 14.1603 -2.80018e-05 13.707 4.5432e-09 13.2445L4.5432e-09 6.08781C0.000754912 5.67765 0.103871 5.27416 0.3 4.91392V4.85726C0.328889 4.80059 0.365556 4.74781 0.407778 4.70059C0.655247 4.34505 0.991097 4.06013 1.38222 3.87392L8.87444 0.262813C9.21805 0.0950242 9.5954 0.0078125 9.97778 0.0078125C10.3602 0.0078125 10.7375 0.0950242 11.0811 0.262813L18.5733 3.9817C18.9917 4.1821 19.3453 4.49589 19.5941 4.88738C19.8429 5.27886 19.9768 5.73232 19.9806 6.19615V13.2445C19.9886 13.7142 19.863 14.1764 19.6182 14.5774C19.3735 14.9783 19.0198 15.3014 18.5983 15.5089L11.1056 19.2267C10.7556 19.3823 10.3739 19.4561 9.99 19.4417ZM10.8228 10.2445V17.475L17.8578 13.9878C18.14 13.8461 18.3178 13.5584 18.3156 13.2439V6.68281L10.8222 10.2445H10.8228ZM1.665 6.46004V13.2439C1.66411 13.3983 1.70653 13.5499 1.78745 13.6814C1.86837 13.8129 1.98455 13.919 2.12278 13.9878L9.15778 17.475V10.2278L1.665 6.46004ZM2.64722 5.09615L9.99 8.80615L12.6789 7.52559L5.59444 3.67504L2.64722 5.0967V5.09615ZM7.43444 2.78226L14.5356 6.64892L17.4828 5.25281L10.3483 1.73281C10.2342 1.67734 10.1089 1.64851 9.98195 1.64851C9.85501 1.64851 9.72973 1.67734 9.61556 1.73281L7.43444 2.78226Z" fill="#747474"/>
</g>
<defs>
<clipPath id="clip0_1_1213">
<rect width="20" height="20" fill="white"/>
</clipPath>
</defs>
</svg>
