<svg width="32" height="32" viewBox="0 0 32 32" fill="none" xmlns="http://www.w3.org/2000/svg">
<path d="M23.3333 15.3333C23.3333 16.0697 23.9302 16.6667 24.6666 16.6667C25.403 16.6667 25.9999 16.0697 25.9999 15.3333H24.6666H23.3333ZM6.66659 4V5.33333H23.3333V4V2.66667H6.66659V4ZM5.33325 24.6667H6.66659V5.33333H5.33325H3.99992V24.6667H5.33325ZM24.6666 5.33333H23.3333V15.3333H24.6666H25.9999V5.33333H24.6666ZM16.6666 26V24.6667H6.66658V26V27.3333H16.6666V26ZM5.33325 24.6667H3.99992C3.99992 26.1394 5.19382 27.3333 6.66658 27.3333V26V24.6667H6.66659H5.33325ZM23.3333 4V5.33333L23.3333 5.33333H24.6666H25.9999C25.9999 3.86057 24.806 2.66667 23.3333 2.66667V4ZM6.66659 4V2.66667C5.19383 2.66667 3.99992 3.86057 3.99992 5.33333H5.33325H6.66659V4Z" fill="#F3F2F2"/>
<path d="M10 9.33325L20 9.33325" stroke="#F3F2F2" stroke-width="2.66667" stroke-linecap="round" stroke-linejoin="bevel"/>
<path d="M10 14.6667L15.3333 14.6667" stroke="#F3F2F2" stroke-width="2.66667" stroke-linecap="round" stroke-linejoin="bevel"/>
<circle cx="22.6667" cy="22.6667" r="6.66667" stroke="#F3F2F2" stroke-width="2.66667" stroke-linejoin="bevel"/>
<path d="M21.3333 20.6667V24.0001H25.3333" stroke="#F3F2F2" stroke-width="2.66667" stroke-linecap="round" stroke-linejoin="round"/>
</svg>
